<svg width="20" height="20" viewBox="0 0 20 20" fill="none" xmlns="http://www.w3.org/2000/svg">
<path fill-rule="evenodd" clip-rule="evenodd" d="M17.9999 0H1.99988C0.899878 0 0.00987793 0.9 0.00987793 2L-0.00012207 20L3.99988 15H17.9999C19.0999 15 19.9999 14.1 19.9999 13V2C19.9999 0.9 19.0999 0 17.9999 0ZM10.9999 11H4.99988C4.44988 11 3.99988 10.55 3.99988 10C3.99988 9.45 4.44988 9 4.99988 9H10.9999C11.5499 9 11.9999 9.45 11.9999 10C11.9999 10.55 11.5499 11 10.9999 11ZM14.9999 6H4.99988C4.44988 6 3.99988 5.55 3.99988 5C3.99988 4.45 4.44988 4 4.99988 4H14.9999C15.5499 4 15.9999 4.45 15.9999 5C15.9999 5.55 15.5499 6 14.9999 6Z" fill="white"/>
<path fill-rule="evenodd" clip-rule="evenodd" d="M17.9999 0H1.99988C0.899878 0 0.00987793 0.9 0.00987793 2L-0.00012207 20L3.99988 15H17.9999C19.0999 15 19.9999 14.1 19.9999 13V2C19.9999 0.9 19.0999 0 17.9999 0ZM10.9999 11H4.99988C4.44988 11 3.99988 10.55 3.99988 10C3.99988 9.45 4.44988 9 4.99988 9H10.9999C11.5499 9 11.9999 9.45 11.9999 10C11.9999 10.55 11.5499 11 10.9999 11ZM14.9999 6H4.99988C4.44988 6 3.99988 5.55 3.99988 5C3.99988 4.45 4.44988 4 4.99988 4H14.9999C15.5499 4 15.9999 4.45 15.9999 5C15.9999 5.55 15.5499 6 14.9999 6Z" fill="white"/>
</svg>
