<svg width="18" height="18" viewBox="0 0 18 18" fill="none" xmlns="http://www.w3.org/2000/svg">
<path fill-rule="evenodd" clip-rule="evenodd" d="M1.75995 12.25L4.29995 11.96C4.90995 11.89 5.50995 12.1 5.93995 12.53L7.77995 14.37C10.6099 12.93 12.9299 10.62 14.3699 7.78L12.5199 5.93C12.0899 5.5 11.8799 4.9 11.9499 4.29L12.2399 1.77C12.3599 0.76 13.2099 0 14.2299 0H15.9599C17.0899 0 18.0299 0.94 17.9599 2.07C17.4299 10.61 10.5999 17.43 2.06995 17.96C0.939949 18.03 -4.95911e-05 17.09 -4.95911e-05 15.96V14.23C-0.0100498 13.22 0.749949 12.37 1.75995 12.25Z" fill="white"/>
</svg>
